{"glyphs":{"2":{"ha":625,"x_min":165,"x_max":719,"o":"m 221 32 l 221 32 q 205 42 215 35 q 184 60 194 50 q 169 79 174 71 l 169 79 q 170 104 165 86 q 181 122 175 122 l 181 122 q 194 132 185 119 q 214 159 204 144 q 224 176 224 174 l 224 176 q 231 185 225 182 q 243 193 238 189 l 243 193 q 262 216 250 204 q 281 236 274 228 l 281 236 q 321 278 292 250 q 378 335 350 306 l 378 335 q 429 391 407 367 q 453 425 451 415 l 453 425 q 458 430 453 425 q 469 439 463 435 l 469 439 q 488 453 476 443 q 508 471 500 463 l 508 471 q 524 502 511 482 q 551 536 538 522 l 551 536 q 572 573 563 553 q 585 603 582 593 l 585 603 q 585 622 589 618 q 550 635 581 625 l 550 635 q 477 644 517 646 q 389 607 438 642 l 389 607 q 353 596 369 603 q 326 590 338 589 l 326 590 q 314 603 321 593 q 299 621 307 613 l 299 621 l 285 650 l 328 674 q 431 724 385 710 q 517 725 478 738 l 517 725 q 544 722 532 725 q 557 718 557 718 l 557 718 q 585 706 568 719 q 617 674 601 693 q 642 635 633 654 l 642 635 q 656 565 664 601 q 614 476 649 528 l 614 476 q 583 442 607 468 q 530 383 560 415 q 476 325 500 350 q 444 293 451 300 l 444 293 q 412 265 435 289 q 363 212 389 240 q 320 162 338 183 q 306 140 303 140 l 306 140 q 310 135 304 135 q 328 140 315 136 l 328 140 q 383 154 349 147 q 453 166 417 161 q 516 172 489 171 q 547 169 543 174 l 547 169 q 552 165 550 163 q 554 167 554 167 l 554 167 q 590 172 557 176 q 649 160 622 168 l 649 160 q 673 153 664 156 q 682 144 682 150 l 682 144 q 685 138 682 144 q 697 122 689 132 l 697 122 q 703 99 719 104 q 631 103 686 93 l 631 103 q 571 99 594 103 l 571 99 q 547 96 565 96 q 513 94 529 96 l 513 94 q 463 92 488 97 q 403 76 438 88 l 403 76 q 364 64 390 72 q 307 47 338 56 q 252 35 276 39 q 221 32 228 31 z "},"4":{"ha":625,"x_min":253,"x_max":739,"o":"m 440 10 l 440 10 q 431 39 431 22 q 443 107 431 56 l 443 107 q 460 185 450 143 q 475 253 469 228 l 475 253 q 492 301 486 279 q 499 324 499 324 l 499 324 q 481 322 499 324 q 438 310 463 321 l 438 310 q 330 300 368 293 q 269 344 292 307 l 269 344 q 258 369 263 351 q 253 403 253 386 q 260 426 253 419 l 260 426 q 277 463 268 444 q 292 494 286 481 q 299 511 299 508 l 299 511 q 302 520 299 515 q 306 531 306 525 l 306 531 q 333 577 311 543 q 381 651 354 611 q 433 725 408 692 q 468 768 457 758 l 468 768 q 492 777 479 774 q 508 775 504 781 l 508 775 q 517 754 513 768 q 523 729 521 740 q 521 718 525 718 l 521 718 q 517 717 521 718 q 514 711 514 717 l 514 711 q 500 688 514 706 q 469 650 486 669 l 469 650 q 433 599 450 624 q 401 551 417 575 q 372 504 386 528 q 343 456 357 481 l 343 456 q 326 396 328 408 q 329 378 324 383 l 329 378 q 365 376 338 374 q 440 392 392 378 l 440 392 q 490 402 467 397 q 522 413 513 407 l 522 413 q 542 417 533 413 q 551 426 551 421 l 551 426 q 560 450 551 432 q 575 483 569 468 l 575 483 q 602 540 586 504 q 635 601 618 575 l 635 601 q 678 702 669 679 q 693 725 688 725 l 693 725 q 708 720 699 725 q 724 704 718 715 l 724 704 q 736 685 733 694 q 728 657 739 676 l 728 657 q 720 628 725 640 q 706 600 715 617 q 681 551 697 583 l 681 551 q 642 472 664 518 q 600 378 621 426 q 562 287 579 329 q 536 219 544 244 l 536 219 q 507 133 517 164 q 497 84 497 101 q 503 53 496 67 l 503 53 q 492 10 506 28 q 462 -9 478 -7 q 440 10 446 -11 z "},"7":{"ha":625,"x_min":251,"x_max":694,"o":"m 307 -25 l 307 -25 q 278 -7 290 -22 q 257 28 265 8 l 257 28 q 279 120 251 54 q 354 275 307 186 l 354 275 q 383 333 385 325 q 357 342 382 342 l 357 342 q 328 348 344 344 q 307 357 311 351 l 307 357 q 281 381 285 368 q 290 396 278 394 l 290 396 q 294 403 296 399 q 294 413 293 408 l 294 413 q 305 413 299 414 q 318 410 311 411 l 318 410 q 347 410 338 410 q 372 410 357 410 l 372 410 q 390 410 379 410 q 408 408 400 410 l 408 408 q 435 412 428 406 q 461 443 442 418 l 461 443 q 496 495 472 463 q 538 563 519 528 l 538 563 q 612 689 604 657 q 579 718 619 721 l 579 718 q 530 708 557 717 q 450 681 503 700 l 450 681 q 378 653 399 658 q 343 657 358 649 l 343 657 q 330 666 335 658 q 324 684 325 674 q 325 704 324 694 l 325 704 q 382 738 328 719 q 507 774 436 756 l 507 774 q 568 781 539 779 q 619 778 597 782 q 646 763 640 774 l 646 763 q 649 759 646 763 q 654 761 653 756 l 654 761 q 663 751 660 760 q 674 728 665 742 l 674 728 q 691 693 688 704 q 690 661 694 682 l 690 661 q 676 631 686 646 q 661 611 667 615 l 661 611 q 651 599 654 606 q 647 592 647 592 l 647 592 q 639 581 646 586 q 625 568 632 576 l 625 568 q 619 556 624 563 q 613 544 614 549 l 613 544 q 601 528 611 543 q 578 492 592 513 q 552 453 564 471 q 536 429 540 436 l 536 429 q 517 403 517 411 q 535 386 517 394 l 535 386 q 574 363 558 376 q 594 331 589 350 l 594 331 q 588 299 596 303 l 588 299 q 566 290 581 289 q 547 297 551 292 l 547 297 q 528 313 543 306 q 500 325 514 321 q 482 329 486 329 l 482 329 q 471 319 476 326 q 458 303 465 311 l 458 303 q 433 258 449 289 q 401 197 417 226 q 376 153 385 167 l 376 153 q 369 139 375 146 q 360 122 363 132 l 360 122 q 350 94 354 113 q 346 60 346 75 q 350 44 346 46 l 350 44 q 366 42 361 47 q 374 26 371 38 l 374 26 q 369 3 381 17 q 340 -19 358 -10 q 307 -25 322 -28 z "},"A":{"ha":697,"x_min":67,"x_max":749,"o":"m 118 -62 l 96 -46 q 69 -15 71 -32 q 88 43 67 1 q 153 172 108 85 l 153 172 q 203 270 186 235 q 227 321 221 306 q 233 340 233 336 l 233 340 q 236 360 231 353 q 254 374 242 368 l 254 374 q 277 399 261 381 q 307 442 293 417 l 307 442 q 336 501 319 471 q 381 578 353 532 q 453 700 408 625 l 453 700 q 514 799 481 749 q 585 900 547 850 l 585 900 q 613 931 600 919 q 638 942 625 943 l 638 942 q 676 931 654 942 q 715 901 697 919 q 742 863 733 883 l 742 863 q 747 815 749 851 q 742 728 746 779 q 732 618 738 676 l 732 618 q 719 483 728 561 q 703 321 711 406 q 692 158 696 236 q 692 21 688 79 l 692 21 q 692 -3 693 8 q 690 -21 690 -14 l 690 -21 q 663 -28 682 -29 q 627 -19 644 -28 q 607 1 610 -11 l 607 1 q 602 13 603 6 q 603 46 601 21 q 606 125 604 71 l 606 125 l 613 350 l 594 349 q 547 346 582 349 q 472 338 513 343 q 398 328 432 333 q 351 319 364 324 l 351 319 q 322 303 339 319 q 289 260 304 286 l 289 260 q 269 219 283 240 q 254 190 254 197 l 254 190 q 238 174 244 183 q 232 164 232 164 l 232 164 q 219 123 232 156 q 186 51 206 90 q 147 -18 167 11 l 147 -18 l 118 -62 z m 383 401 l 383 401 q 398 404 383 401 q 433 410 413 407 q 469 414 453 414 l 469 414 q 554 433 528 428 q 591 438 581 438 q 610 433 601 438 l 610 433 q 620 425 615 426 q 625 424 625 424 l 625 424 q 629 456 626 426 q 637 528 632 485 q 647 617 642 571 q 654 703 651 664 q 658 764 657 743 l 658 764 q 661 812 660 790 q 663 833 663 833 l 663 833 q 627 803 654 833 q 567 722 600 772 q 504 615 533 672 l 504 615 q 478 568 490 589 q 458 547 465 547 l 458 547 q 442 523 456 544 q 414 474 429 501 q 389 426 399 447 q 383 401 379 404 z "},"C":{"ha":656,"x_min":158,"x_max":776,"o":"m 297 -78 l 297 -78 q 255 -60 276 -69 q 215 -31 233 -50 q 182 21 196 -12 l 182 21 q 163 100 168 61 q 160 190 158 139 l 160 190 q 170 316 160 263 q 203 425 181 369 l 203 425 q 213 449 206 429 q 231 493 221 469 q 247 529 242 517 l 247 529 q 281 592 258 553 q 331 669 304 632 l 331 669 q 397 764 371 729 q 447 822 424 799 q 501 867 471 846 q 578 921 531 889 l 578 921 q 645 944 608 943 q 714 928 682 946 q 761 878 746 911 l 761 878 q 776 808 776 849 q 764 722 776 767 q 729 636 751 676 q 678 569 707 596 l 678 569 q 645 557 660 553 q 611 579 631 561 l 611 579 q 598 607 599 603 q 603 613 597 611 l 603 613 q 625 646 611 622 q 653 697 639 669 q 672 740 667 724 l 672 740 q 688 823 683 799 q 679 860 692 847 l 679 860 q 663 864 674 865 q 629 850 653 863 l 629 850 q 546 788 597 836 q 451 682 494 740 l 451 682 q 358 551 396 608 q 301 435 321 494 l 301 435 q 292 414 299 429 q 286 399 286 399 l 286 399 q 282 372 288 393 q 269 335 276 350 l 269 335 q 251 202 254 271 q 259 81 249 133 q 290 7 269 28 l 290 7 q 340 -1 308 -6 q 411 18 371 3 q 493 51 451 33 l 493 51 q 554 82 526 65 q 596 111 582 99 l 596 111 q 624 128 607 119 q 654 138 642 138 l 654 138 q 676 143 674 144 q 679 131 679 142 l 679 131 q 658 88 679 111 q 603 44 636 64 l 603 44 q 574 21 592 33 q 536 1 556 8 l 536 1 q 464 -42 507 -21 q 377 -74 421 -62 q 297 -78 333 -85 z "},"D":{"ha":803,"x_min":110,"x_max":903,"o":"m 313 -132 l 313 -132 q 264 -137 286 -136 q 199 -126 242 -137 l 199 -126 q 167 -110 176 -119 q 138 -74 158 -100 l 138 -74 q 116 -33 122 -51 q 114 -3 110 -14 q 132 3 118 7 l 132 3 q 145 -6 136 1 q 163 -25 154 -14 l 163 -25 q 210 -53 182 -46 q 283 -54 238 -60 l 283 -54 q 331 -42 303 -50 q 385 -24 358 -35 q 426 -1 411 -12 l 426 -1 q 544 78 500 49 q 589 107 589 107 l 589 107 q 599 116 592 113 q 618 124 607 119 l 618 124 q 645 150 626 132 q 681 186 664 168 q 703 207 699 204 l 703 207 q 708 227 706 219 q 711 243 711 235 l 711 243 q 741 290 722 254 q 779 369 760 325 q 807 449 799 413 l 807 449 q 817 613 826 546 q 777 727 807 679 q 703 813 747 775 l 703 813 q 660 840 688 825 q 604 865 633 854 q 553 883 575 876 q 528 889 532 890 l 528 889 q 505 845 522 888 q 464 738 488 803 q 413 599 440 672 q 363 460 386 525 l 363 460 q 344 404 354 433 q 328 353 335 375 q 321 325 321 332 l 321 325 q 297 263 306 301 q 276 133 288 224 l 276 133 q 258 62 264 86 q 247 39 253 38 l 247 39 q 247 38 247 39 q 242 33 246 38 l 242 33 q 231 25 242 25 q 205 31 219 25 q 182 46 190 38 l 182 46 q 177 75 178 61 q 188 129 176 89 l 188 129 q 205 194 194 156 q 228 273 215 232 q 251 349 240 314 q 268 401 263 383 l 268 401 q 296 490 278 425 l 296 490 q 319 563 307 526 q 342 627 331 599 q 357 664 353 656 l 357 664 q 378 725 364 682 q 414 821 392 768 l 414 821 l 424 867 l 408 874 q 383 870 392 868 q 371 874 374 872 l 371 874 q 347 878 363 871 q 320 896 332 885 q 306 915 308 907 l 306 915 q 302 930 303 921 q 301 939 301 939 l 301 939 q 322 955 303 947 q 373 968 342 963 q 441 976 404 974 q 513 975 478 978 l 513 975 q 581 960 549 972 q 650 933 613 947 l 650 933 q 744 876 694 917 q 834 779 793 835 q 889 663 875 724 l 889 663 q 897 615 893 646 q 902 556 901 585 q 896 519 903 528 l 896 519 q 892 506 893 514 q 897 496 892 499 l 897 496 q 888 465 896 492 q 872 418 879 438 l 872 418 q 856 343 869 382 q 825 270 842 304 q 794 213 808 236 l 794 213 q 784 210 789 213 q 785 207 779 208 l 785 207 q 769 181 785 200 l 769 181 q 752 160 764 176 q 733 139 740 144 l 733 139 q 725 123 732 129 q 713 117 718 117 l 713 117 q 710 117 713 117 q 708 111 708 117 l 708 111 q 674 72 697 94 q 620 24 650 49 q 559 -21 590 0 q 500 -53 528 -42 l 500 -53 q 471 -69 486 -62 q 442 -82 456 -75 l 442 -82 q 411 -98 435 -87 q 360 -118 388 -108 q 313 -132 333 -128 z "},"E":{"ha":735,"x_min":111,"x_max":885,"o":"m 321 -33 l 321 -33 q 245 -7 278 -31 q 176 42 213 17 l 176 42 q 139 92 153 65 q 117 164 125 119 l 117 164 q 117 231 111 190 q 135 312 122 271 q 158 378 147 353 l 158 378 q 201 462 175 417 q 252 548 226 507 q 293 614 278 589 l 293 614 q 302 624 303 624 q 301 625 301 625 l 301 625 q 316 660 301 632 q 342 711 331 689 l 342 711 q 365 747 363 733 q 361 769 368 761 l 361 769 q 371 789 358 775 q 408 821 383 803 q 465 857 433 839 l 465 857 q 530 885 499 883 q 567 872 561 888 l 567 872 q 583 870 567 868 q 620 877 599 872 q 658 885 642 882 l 658 885 q 691 898 665 893 q 751 907 717 903 l 751 907 q 787 906 769 906 q 816 908 804 907 q 828 910 828 910 l 828 910 q 851 907 838 913 q 875 876 864 901 l 875 876 q 869 839 885 851 q 796 819 853 826 l 796 819 q 724 810 754 814 q 660 802 693 807 q 578 786 626 797 l 578 786 q 521 770 543 779 q 482 744 499 761 q 444 694 465 726 l 444 694 q 419 658 435 688 q 389 600 404 629 l 389 600 q 322 506 350 546 q 299 460 293 467 l 299 460 q 314 456 299 460 q 335 451 329 451 l 335 451 q 369 461 349 458 q 401 467 389 464 l 401 467 q 537 501 488 489 q 612 520 586 514 q 651 528 638 526 l 651 528 q 690 533 671 543 q 719 503 708 524 l 719 503 q 720 476 726 488 q 685 454 714 465 q 601 428 657 443 q 456 388 546 413 l 456 388 q 325 361 379 365 q 274 385 271 357 l 274 385 q 252 372 264 390 q 229 321 240 353 q 210 253 218 289 q 201 185 203 217 q 204 139 199 154 l 204 139 q 233 88 215 107 q 299 56 251 69 l 299 56 q 353 51 326 54 q 413 63 379 49 l 413 63 q 542 92 494 76 q 596 113 589 107 l 596 113 q 610 119 607 118 q 621 119 614 119 l 621 119 q 624 119 617 113 q 646 139 632 125 l 646 139 q 686 165 661 153 q 731 185 711 178 q 753 185 751 192 l 753 185 q 750 147 761 171 q 710 94 739 122 q 635 39 681 65 l 635 39 q 475 -16 561 0 q 321 -33 389 -32 z "},"É":{"ha":761,"x_min":111,"x_max":885,"o":"m 321 -33 l 321 -33 q 245 -7 278 -31 q 176 42 213 17 l 176 42 q 139 92 153 65 q 117 164 125 119 l 117 164 q 117 231 111 190 q 135 312 122 271 q 158 378 147 353 l 158 378 q 201 462 175 417 q 252 548 226 507 q 293 614 278 589 l 293 614 q 302 624 303 624 q 301 625 301 625 l 301 625 q 316 660 301 632 q 342 711 331 689 l 342 711 q 365 747 363 733 q 361 769 368 761 l 361 769 q 371 789 358 775 q 408 821 383 803 q 465 857 433 839 l 465 857 q 530 885 499 883 q 567 872 561 888 l 567 872 q 583 870 567 868 q 620 877 599 872 q 658 885 642 882 l 658 885 q 691 898 665 893 q 751 907 717 903 l 751 907 q 787 906 769 906 q 816 908 804 907 q 828 910 828 910 l 828 910 q 851 907 838 913 q 875 876 864 901 l 875 876 q 869 839 885 851 q 796 819 853 826 l 796 819 q 724 810 754 814 q 660 802 693 807 q 578 786 626 797 l 578 786 q 521 770 543 779 q 482 744 499 761 q 444 694 465 726 l 444 694 q 419 658 435 688 q 389 600 404 629 l 389 600 q 322 506 350 546 q 299 460 293 467 l 299 460 q 314 456 299 460 q 335 451 329 451 l 335 451 q 369 461 349 458 q 401 467 389 464 l 401 467 q 537 501 488 489 q 612 520 586 514 q 651 528 638 526 l 651 528 q 690 533 671 543 q 719 503 708 524 l 719 503 q 720 476 726 488 q 685 454 714 465 q 601 428 657 443 q 456 388 546 413 l 456 388 q 325 361 379 365 q 274 385 271 357 l 274 385 q 252 372 264 390 q 229 321 240 353 q 210 253 218 289 q 201 185 203 217 q 204 139 199 154 l 204 139 q 233 88 215 107 q 299 56 251 69 l 299 56 q 353 51 326 54 q 413 63 379 49 l 413 63 q 542 92 494 76 q 596 113 589 107 l 596 113 q 610 119 607 118 q 621 119 614 119 l 621 119 q 624 119 617 113 q 646 139 632 125 l 646 139 q 686 165 661 153 q 731 185 711 178 q 753 185 751 192 l 753 185 q 750 147 761 171 q 710 94 739 122 q 635 39 681 65 l 635 39 q 475 -16 561 0 q 321 -33 389 -32 z m 701 992 l 701 992 q 687 1021 692 1001 q 683 1046 682 1040 l 683 1046 q 702 1074 685 1053 q 743 1119 719 1094 q 788 1164 767 1144 q 819 1188 810 1183 l 819 1188 q 849 1184 835 1197 q 876 1149 863 1171 l 876 1149 q 866 1119 881 1136 q 828 1082 851 1101 q 781 1044 804 1063 q 747 1010 758 1025 l 747 1010 q 726 983 733 988 q 701 992 718 979 z "},"F":{"ha":631,"x_min":113,"x_max":900,"o":"m 710 439 l 710 439 q 678 424 706 429 q 589 411 650 418 l 589 411 q 535 408 571 410 q 459 406 500 407 q 385 405 418 404 q 339 408 351 406 l 339 408 q 333 401 339 408 q 326 383 326 394 l 326 383 q 302 332 317 367 q 270 256 288 297 q 238 172 253 214 q 214 100 224 131 q 204 58 204 69 l 204 58 q 189 1 192 25 q 179 -26 186 -22 l 179 -26 q 161 -29 178 -32 q 133 -14 144 -26 l 133 -14 q 115 9 117 -1 q 122 50 113 19 l 122 50 q 137 103 126 68 q 160 182 147 139 q 188 266 174 225 q 217 333 203 307 l 217 333 q 236 381 232 360 q 247 421 240 403 l 247 421 q 247 442 246 436 q 258 458 249 447 l 258 458 q 276 478 265 464 q 300 524 286 493 l 300 524 q 313 562 304 538 q 331 612 322 586 q 346 656 339 638 q 353 675 353 674 l 353 675 q 361 697 356 681 q 369 722 367 713 l 369 722 q 378 754 375 742 q 376 767 382 767 l 376 767 q 332 763 365 764 l 332 763 q 308 759 315 760 q 294 757 300 758 l 294 757 q 269 760 281 756 q 258 776 258 764 l 258 776 q 274 813 261 799 q 308 829 288 828 l 308 829 q 330 834 318 832 q 363 842 342 836 l 363 842 q 403 851 389 847 q 426 851 418 854 l 426 851 q 439 860 433 856 q 444 871 444 865 l 444 871 q 451 881 444 878 q 465 885 457 885 q 483 883 474 886 q 496 874 492 881 l 496 874 q 508 867 499 869 q 544 867 518 864 q 617 881 569 871 l 617 881 q 680 886 642 883 q 740 882 718 889 l 740 882 q 783 885 764 886 q 808 890 801 885 l 808 890 q 851 883 838 885 q 872 874 864 881 l 872 874 q 876 863 878 868 q 874 858 874 858 l 874 858 q 875 858 868 861 q 885 851 882 854 l 885 851 q 897 841 894 847 q 900 829 900 835 q 899 819 900 824 l 899 819 q 885 805 897 807 q 822 804 872 803 l 822 804 q 705 810 763 813 q 571 797 647 808 l 571 797 q 522 790 543 796 q 497 783 500 783 l 497 783 q 478 765 492 783 q 451 710 464 746 l 451 710 q 432 665 446 700 q 402 590 418 631 q 374 519 386 550 q 360 486 363 489 l 360 486 q 423 481 379 481 q 520 484 467 481 q 618 492 574 488 l 618 492 q 662 499 639 496 q 692 500 685 503 l 692 500 q 704 484 699 496 q 712 460 710 472 q 710 439 714 447 z "},"G":{"ha":676,"x_min":158,"x_max":807,"o":"m 238 -43 l 238 -43 q 179 24 200 -19 q 160 113 158 68 l 160 113 q 174 287 158 199 q 217 458 190 375 l 217 458 q 256 562 235 508 q 300 663 278 615 q 339 738 322 710 l 339 738 q 430 855 382 808 q 501 915 478 901 l 501 915 q 569 938 521 926 q 668 936 617 949 l 668 936 q 735 913 704 926 q 776 889 767 899 l 776 889 q 797 860 788 872 q 806 832 806 849 l 806 832 q 798 805 807 821 q 776 782 789 789 q 750 789 763 775 l 750 789 q 713 827 732 817 q 671 849 693 838 l 671 849 q 629 859 656 858 q 575 853 603 860 q 526 829 547 846 l 526 829 q 490 792 513 817 q 446 739 468 768 q 410 682 424 710 l 410 682 q 342 551 372 617 q 292 407 313 485 l 292 407 q 277 350 286 388 q 260 275 268 313 q 249 214 251 238 l 249 214 q 242 94 239 146 q 278 24 246 43 q 383 29 310 4 l 383 29 q 452 57 415 33 q 524 116 489 81 q 585 192 560 151 l 585 192 q 627 279 608 236 q 647 350 646 322 q 621 376 649 378 l 621 376 q 538 380 569 382 q 481 389 506 378 l 481 389 q 472 419 471 404 q 489 450 474 435 l 489 450 q 540 458 504 456 q 618 456 576 461 q 692 436 660 451 l 692 436 q 725 403 715 425 q 735 354 735 382 q 729 297 735 326 l 729 297 q 699 224 722 267 q 644 135 676 182 l 644 135 q 587 71 624 106 q 512 8 550 36 q 447 -29 474 -19 l 447 -29 q 333 -62 392 -54 q 238 -43 275 -69 z "},"H":{"ha":782,"x_min":110,"x_max":992,"o":"m 181 -115 l 181 -115 q 176 -113 181 -115 q 166 -110 172 -111 q 151 -108 160 -108 l 151 -108 q 119 -84 129 -103 q 115 -43 110 -65 l 115 -43 q 124 -19 121 -37 q 126 10 126 -1 l 126 10 q 133 26 132 21 q 140 53 135 31 l 140 53 q 155 119 144 76 q 178 210 165 161 q 204 303 192 258 q 227 378 217 347 q 242 413 238 408 l 242 413 q 242 417 242 413 q 242 428 242 422 l 242 428 q 244 441 242 428 q 257 471 246 454 l 257 471 q 267 504 263 486 q 271 528 271 522 l 271 528 q 287 562 276 535 q 307 615 297 589 l 307 615 q 326 663 315 638 q 344 706 336 688 q 351 724 351 724 l 351 724 q 351 730 351 729 q 351 731 351 731 l 351 731 q 378 787 357 736 q 438 918 400 838 l 438 918 q 451 943 443 929 q 460 963 460 957 l 460 963 q 479 973 467 974 q 505 964 492 972 q 525 940 518 956 l 525 940 l 539 918 l 489 818 q 452 747 467 779 q 438 710 438 715 l 438 710 q 429 688 438 710 q 410 635 421 665 q 390 579 399 604 l 390 579 q 362 508 375 536 q 349 475 349 481 l 349 475 q 379 479 349 478 q 457 481 410 481 q 553 481 504 481 q 641 483 603 482 q 693 486 679 483 l 693 486 l 765 493 l 813 636 q 842 731 824 675 q 874 825 860 786 l 874 825 q 908 904 896 889 q 938 919 921 919 l 938 919 q 949 917 942 919 q 965 910 957 915 q 975 897 972 906 l 975 897 q 991 863 992 882 q 968 811 990 843 l 968 811 q 931 730 946 774 q 906 658 917 686 l 906 658 q 901 631 906 642 q 892 615 897 621 l 892 615 q 881 594 889 613 q 865 558 872 576 q 858 536 858 540 l 858 536 q 854 513 858 526 q 844 493 850 499 l 844 493 q 832 451 842 485 q 810 373 822 418 q 783 285 797 328 q 758 215 769 243 l 758 215 q 751 191 758 206 q 744 165 744 176 l 744 165 q 731 124 739 149 q 722 92 722 99 l 722 92 q 708 26 715 60 q 695 -31 700 -7 q 690 -60 690 -56 l 690 -60 q 674 -61 685 -65 q 647 -51 663 -57 l 647 -51 q 616 -19 621 -36 q 626 31 611 -1 l 626 31 q 644 85 633 42 q 665 172 654 129 l 665 172 q 683 228 674 193 q 703 301 693 264 q 719 363 713 338 q 729 392 726 389 l 729 392 q 729 401 729 397 q 729 406 729 406 l 729 406 q 694 410 726 408 q 615 412 663 413 q 517 409 568 411 q 426 401 467 407 l 426 401 q 392 401 411 401 q 361 401 372 401 l 361 401 q 335 401 346 401 q 325 401 325 401 l 325 401 q 315 372 324 397 q 296 312 307 347 q 273 240 285 276 q 253 173 261 203 q 243 131 246 143 l 243 131 q 228 68 238 106 q 209 -9 219 31 q 191 -78 199 -49 q 181 -115 183 -107 z "},"I":{"ha":556,"x_min":64,"x_max":839,"o":"m 267 -43 l 267 -43 q 223 -24 257 -28 q 140 -22 189 -19 l 140 -22 q 103 -20 121 -25 q 74 -5 85 -15 q 67 17 64 6 l 67 17 q 95 43 68 33 q 182 54 122 53 l 182 54 l 256 56 l 269 83 q 283 126 275 99 q 301 186 292 154 l 301 186 q 318 239 307 206 q 342 310 329 272 q 364 377 354 347 q 376 419 374 407 l 376 419 q 392 462 382 432 q 410 523 401 492 q 422 568 419 554 l 422 568 q 469 724 458 678 q 475 772 481 771 l 475 772 q 448 771 469 772 q 401 767 426 769 q 355 763 375 765 q 331 757 335 760 l 331 757 q 307 753 324 747 q 286 772 290 758 l 286 772 q 285 792 285 785 q 293 803 286 799 l 293 803 q 331 822 303 811 q 394 840 358 832 q 461 853 429 849 l 461 853 q 508 863 485 856 q 546 882 532 871 l 546 882 q 570 889 558 886 q 594 890 582 892 l 594 890 q 633 883 606 883 q 690 885 660 883 l 690 885 q 795 889 768 892 q 832 867 822 886 l 832 867 q 835 826 839 840 q 807 813 831 811 l 807 813 q 762 808 794 810 q 693 804 729 806 l 693 804 q 588 785 594 796 l 588 785 q 578 774 582 779 q 569 761 575 768 l 569 761 q 563 726 571 756 q 544 665 556 696 l 544 665 q 528 614 539 647 q 505 545 517 581 q 483 481 493 510 q 469 443 474 453 l 469 443 q 460 416 464 431 q 456 394 457 401 l 456 394 q 422 279 436 326 q 395 197 407 232 q 374 128 383 161 q 353 57 364 96 l 353 57 q 374 59 353 57 q 432 64 396 61 l 432 64 q 526 72 497 71 q 564 69 554 74 q 578 51 574 64 l 578 51 q 585 0 606 14 q 486 -12 564 -14 l 486 -12 q 376 -17 414 -15 q 323 -24 338 -19 q 306 -37 308 -28 l 306 -37 q 294 -49 306 -49 q 267 -43 283 -49 z "},"K":{"ha":692,"x_min":113,"x_max":944,"o":"m 133 -51 l 133 -51 q 114 -30 115 -40 q 121 10 113 -19 l 121 10 q 123 43 119 28 q 128 64 126 58 l 128 64 q 136 72 135 64 q 138 86 138 81 l 138 86 q 147 124 138 97 q 163 178 156 150 l 163 178 q 184 230 174 206 q 194 260 194 254 l 194 260 q 200 283 194 271 q 213 306 206 294 l 213 306 q 223 342 219 322 q 226 374 226 363 l 226 374 q 244 413 235 392 q 260 456 254 433 l 260 456 q 284 524 268 479 q 318 617 300 569 l 318 617 q 343 672 331 643 q 365 722 356 701 q 379 743 375 743 l 379 743 q 379 748 379 743 q 379 758 379 753 l 379 758 q 390 785 379 765 q 411 828 401 806 l 411 828 q 431 867 425 849 q 436 886 436 886 l 436 886 q 441 894 436 886 q 451 908 446 903 l 451 908 q 485 918 469 921 q 513 892 501 915 l 513 892 q 522 855 524 869 q 510 824 521 840 l 510 824 q 481 760 499 799 q 442 678 463 722 q 405 595 422 635 q 377 527 388 556 q 367 492 367 499 l 367 492 l 310 351 q 305 338 310 349 q 292 304 300 326 q 274 246 285 282 q 247 158 263 210 l 247 158 q 204 20 219 69 q 180 -48 189 -29 q 161 -67 171 -67 l 161 -67 q 149 -62 156 -67 q 133 -51 143 -57 z m 624 -62 l 624 -62 q 590 -51 611 -64 q 544 -18 568 -37 q 498 22 519 1 q 464 58 476 43 l 464 58 q 408 142 442 90 q 358 254 375 194 l 358 254 q 339 324 349 299 q 326 367 329 350 l 326 367 l 328 464 l 399 442 q 420 317 406 367 q 456 231 435 268 l 456 231 q 493 159 472 194 q 538 100 514 124 l 538 100 q 594 49 569 65 q 632 32 619 32 l 632 32 q 652 22 639 31 q 677 5 665 14 q 690 -12 689 -4 l 690 -12 q 692 -26 692 -17 q 690 -42 692 -35 q 685 -54 688 -50 l 685 -54 q 670 -72 681 -64 q 624 -62 660 -79 z m 351 376 l 313 453 l 414 526 q 444 554 418 531 q 529 622 469 578 l 529 622 l 700 761 q 772 807 735 779 q 828 847 808 835 l 828 847 q 869 876 851 864 q 893 888 888 889 l 893 888 q 916 884 904 893 q 935 860 928 875 q 942 835 943 846 l 942 835 q 936 811 944 821 q 896 783 928 801 l 896 783 q 849 758 869 771 q 825 738 829 746 l 825 738 q 799 717 825 738 q 733 669 774 697 l 733 669 q 638 601 678 633 q 588 553 599 569 l 588 553 q 577 549 582 553 q 567 546 572 544 l 567 546 q 556 539 567 546 q 540 525 546 532 l 540 525 q 528 506 538 518 q 506 494 519 493 l 506 494 q 471 472 496 489 q 419 433 446 454 q 372 396 392 413 q 351 376 353 379 l 351 376 z "},"L":{"ha":592,"x_min":140,"x_max":625,"o":"m 301 -53 l 301 -53 q 202 3 246 -39 q 146 89 158 44 l 146 89 q 142 136 144 107 q 141 190 140 165 q 144 219 142 215 l 144 219 q 149 236 149 222 l 149 236 q 151 255 147 242 q 158 282 154 268 l 158 282 q 165 309 165 299 q 164 325 165 319 l 164 325 q 168 334 164 325 q 178 349 172 343 l 178 349 q 185 365 186 357 q 185 374 185 374 l 185 374 q 188 389 183 379 q 196 404 192 399 l 196 404 q 203 416 199 407 q 208 425 208 425 l 208 425 q 215 447 208 429 q 229 487 221 465 q 245 526 238 508 q 257 550 253 544 l 257 550 l 257 553 q 272 582 263 567 l 272 582 q 279 605 274 589 q 292 636 285 621 l 292 636 q 330 712 307 669 q 379 797 353 754 q 430 873 406 839 q 472 924 454 907 l 472 924 q 510 951 496 950 q 544 932 524 953 l 544 932 q 558 908 554 922 q 562 884 563 894 q 556 872 561 874 l 556 872 q 526 841 546 867 q 483 781 507 815 q 435 709 458 746 q 396 643 413 672 l 396 643 q 363 573 378 603 q 347 543 347 543 l 347 543 q 344 536 346 539 q 342 531 343 533 l 342 531 q 307 452 321 488 q 279 378 293 417 l 279 378 q 269 358 271 368 q 268 349 268 349 l 268 349 q 264 342 265 350 q 258 325 263 335 l 258 325 q 250 308 251 319 q 249 285 249 296 l 249 285 q 231 224 239 260 q 219 156 222 189 q 217 106 215 124 l 217 106 q 241 63 219 82 q 293 32 263 44 l 293 32 q 319 23 308 26 q 340 19 331 19 l 340 19 q 369 20 351 18 q 417 28 386 22 l 417 28 l 415 28 q 453 35 433 31 q 492 44 474 40 l 492 44 q 524 51 508 47 q 547 57 539 54 l 547 57 q 592 69 578 65 q 613 67 606 72 l 613 67 q 622 53 619 61 q 621 33 625 46 l 621 33 q 599 13 618 26 q 552 -12 579 0 q 499 -33 525 -25 l 499 -33 q 433 -53 471 -46 q 359 -60 394 -60 q 301 -53 324 -60 z "},"M":{"ha":1000,"x_min":47,"x_max":1110,"o":"m 918 -67 l 918 -67 q 902 -72 917 -75 q 876 -51 888 -68 l 876 -51 q 865 -3 865 -25 q 867 64 865 19 l 867 64 q 890 191 875 113 q 924 367 904 269 q 968 572 944 465 l 968 572 q 995 674 985 628 q 1011 750 1006 721 q 1017 779 1017 779 l 1017 779 q 1009 776 1017 783 q 994 758 1001 768 q 989 743 988 749 l 989 743 q 979 729 989 743 q 954 692 969 715 l 954 692 q 921 636 940 678 q 878 558 901 594 l 878 558 q 831 469 856 517 q 786 389 806 421 l 786 389 q 761 347 774 371 q 746 317 749 324 l 746 317 q 726 280 740 301 q 696 238 713 258 l 696 238 q 679 212 688 225 q 666 190 671 199 q 661 181 661 181 l 661 181 q 648 156 661 176 q 616 110 635 135 q 581 67 597 85 l 581 67 q 503 6 532 15 q 438 31 474 -3 l 438 31 q 411 81 419 53 q 404 152 403 110 q 414 258 406 194 l 414 258 q 432 356 424 307 q 448 449 440 406 q 462 524 456 493 q 472 564 468 554 l 472 564 q 471 594 475 592 q 454 578 467 597 l 454 578 q 425 530 449 568 q 370 436 401 492 q 308 315 339 381 l 308 315 q 215 141 251 210 q 156 32 178 72 q 125 -28 135 -8 q 111 -54 115 -47 q 104 -64 107 -61 l 104 -64 q 78 -53 92 -64 q 51 -29 65 -43 l 51 -29 q 48 -10 47 -19 q 57 19 49 0 q 82 76 65 38 l 82 76 q 115 140 100 113 q 139 172 131 167 l 139 172 q 151 194 146 183 q 158 221 157 206 l 158 221 q 180 255 165 229 q 210 311 194 281 l 210 311 q 238 358 221 329 q 275 423 256 388 q 310 490 294 458 l 310 490 q 418 676 374 600 q 485 772 463 751 l 485 772 q 499 792 492 779 q 507 814 507 804 l 507 814 q 519 867 507 843 q 543 889 531 892 l 543 889 q 568 886 557 889 q 592 868 579 883 l 592 868 q 611 835 603 851 q 610 768 619 818 l 610 768 q 606 724 610 749 q 598 680 601 700 q 593 649 594 660 l 593 649 q 560 527 575 594 q 532 391 544 460 q 511 263 519 322 q 501 166 503 204 q 503 122 499 128 l 503 122 q 519 121 513 117 q 543 157 526 125 l 543 157 q 570 198 553 174 q 604 243 588 222 l 604 243 q 639 301 615 263 q 699 401 663 340 q 788 551 736 463 q 907 756 840 639 l 907 756 q 967 851 939 804 q 1014 911 996 897 l 1014 911 q 1054 920 1033 929 q 1091 883 1075 911 q 1108 814 1107 856 l 1108 814 q 1103 751 1110 794 q 1085 653 1097 708 q 1053 540 1072 599 l 1053 540 q 1040 481 1049 517 q 1019 408 1031 446 q 997 338 1008 371 l 997 338 q 981 247 990 292 q 975 188 972 203 l 975 188 q 958 124 963 165 q 954 38 954 82 l 954 38 q 946 -39 949 -17 q 936 -60 943 -61 l 936 -60 q 918 -67 918 -54 z "},"N":{"ha":832,"x_min":113,"x_max":1022,"o":"m 135 -86 l 135 -86 q 117 -60 121 -71 q 116 -35 113 -50 q 126 6 119 -21 l 126 6 q 151 80 138 50 q 177 142 164 110 q 200 226 190 175 l 200 226 q 240 324 222 278 q 267 399 257 369 q 276 428 276 428 l 276 428 q 289 457 278 433 q 317 515 300 481 q 350 583 335 549 l 350 583 q 388 698 374 650 q 418 785 403 746 q 458 861 433 824 l 458 861 q 497 899 475 890 q 540 898 519 907 q 568 861 560 889 l 568 861 q 580 828 575 847 q 589 772 585 808 q 594 668 593 735 l 594 668 q 596 512 597 589 q 597 369 594 435 q 611 258 599 304 l 611 258 q 623 198 615 233 q 640 128 631 163 q 658 69 649 93 q 672 46 667 46 l 672 46 q 691 64 679 46 q 722 129 703 82 q 767 263 740 176 q 826 486 793 350 l 826 486 q 845 563 833 510 q 863 669 857 615 l 863 669 q 882 746 872 704 q 899 819 892 788 q 907 856 907 851 l 907 856 q 908 872 907 865 q 907 886 908 879 l 907 886 q 919 905 914 886 q 925 938 925 924 l 925 938 q 931 976 925 961 q 944 997 938 990 l 944 997 q 965 1008 949 1008 q 999 999 982 1007 q 1019 976 1015 990 l 1019 976 q 1012 908 1022 961 q 981 764 1001 854 l 981 764 q 972 714 981 749 q 955 640 964 679 q 942 574 946 601 l 942 574 q 929 506 936 538 q 915 476 922 475 l 915 476 q 840 209 879 319 q 769 29 800 99 l 769 29 q 697 -63 736 -47 q 613 -22 657 -79 l 613 -22 q 571 49 586 14 q 546 133 556 85 q 522 251 536 181 l 522 251 q 499 367 501 308 q 503 487 497 425 q 511 615 508 549 l 511 615 q 506 704 510 682 q 490 702 501 726 q 451 604 478 678 l 451 604 q 426 540 442 578 q 394 466 410 503 q 368 402 379 429 q 354 368 357 375 l 354 368 q 335 324 346 351 q 317 267 324 297 l 317 267 q 242 58 267 136 q 207 -50 218 -19 l 207 -50 q 178 -102 193 -89 q 135 -86 163 -115 z "},"O":{"ha":689,"x_min":158,"x_max":818,"o":"m 243 -28 l 243 -28 q 178 33 192 11 q 161 85 164 54 l 161 85 q 162 153 158 110 q 171 238 165 196 q 181 300 176 279 l 181 300 q 187 319 188 307 q 186 331 186 331 l 186 331 q 196 367 185 338 q 217 444 207 397 l 217 444 q 270 584 244 528 q 321 681 296 640 q 371 754 346 721 l 371 754 q 463 842 428 813 q 540 892 497 872 l 540 892 q 592 918 568 908 q 631 921 615 928 l 631 921 q 747 858 708 904 q 804 714 786 811 l 804 714 q 816 603 814 653 q 808 506 818 554 q 773 401 799 458 q 701 268 747 344 l 701 268 q 592 101 653 172 q 469 -10 532 31 q 347 -57 406 -51 q 243 -28 288 -62 z m 332 13 l 332 13 q 393 32 364 17 q 454 77 422 47 q 526 153 486 107 l 526 153 q 585 223 563 194 q 624 281 608 251 q 655 351 640 310 q 689 460 669 393 l 689 460 q 706 529 700 501 q 713 581 711 557 q 713 638 714 606 q 713 719 713 669 l 713 719 q 703 769 711 743 q 683 807 694 794 l 683 807 q 644 828 669 822 q 589 821 619 835 l 589 821 q 546 790 572 814 q 490 733 519 765 q 435 668 461 701 q 394 609 410 635 q 378 574 378 583 l 378 574 q 377 567 378 574 q 371 553 376 560 l 371 553 q 331 483 353 533 q 290 370 310 433 q 258 245 271 307 q 242 138 244 183 l 242 138 q 239 86 239 100 q 244 65 239 72 q 263 36 250 57 l 263 36 q 291 15 271 22 q 332 13 311 8 z "},"Q":{"ha":697,"x_min":157,"x_max":819,"o":"m 321 -99 l 321 -99 q 275 -82 300 -94 q 229 -51 250 -69 q 199 -12 208 -32 l 199 -12 q 160 138 164 58 q 181 332 157 218 l 181 332 q 199 396 188 356 q 225 476 211 436 q 250 544 239 517 q 264 572 261 572 l 264 572 q 268 596 268 576 l 268 596 q 280 626 268 603 q 310 678 292 649 q 349 734 329 707 q 388 776 369 761 l 388 776 q 451 838 415 813 q 521 882 486 864 l 521 882 q 545 894 529 888 q 581 907 561 901 q 615 914 600 913 l 615 914 q 719 897 685 918 q 781 822 754 876 l 781 822 q 811 764 808 792 q 819 696 814 736 l 819 696 q 812 608 819 658 q 792 508 804 557 q 764 426 779 458 q 735 393 749 393 l 735 393 q 731 392 735 393 q 726 385 726 392 l 726 385 q 721 341 729 375 q 692 267 713 307 l 692 267 q 587 58 647 142 q 458 -67 526 -26 q 321 -99 390 -107 z m 607 -175 l 607 -175 q 563 -159 585 -176 q 535 -124 540 -142 l 535 -124 q 525 -108 525 -115 q 522 -97 525 -100 l 522 -97 q 507 -83 517 -94 q 493 -56 497 -71 l 493 -56 q 465 1 483 -36 q 425 77 446 38 q 388 147 404 117 q 369 181 372 176 l 369 181 q 372 208 358 192 l 372 208 q 388 228 379 225 q 424 224 397 231 l 424 224 q 482 157 456 224 l 482 157 q 494 124 483 150 q 519 72 506 97 q 542 39 533 46 l 542 39 q 557 4 549 24 q 575 -28 565 -15 l 575 -28 q 593 -61 579 -43 q 613 -99 607 -79 l 613 -99 q 644 -162 644 -149 q 607 -175 643 -176 z m 332 -18 l 332 -18 q 448 48 390 -11 q 558 203 506 107 q 651 418 610 300 l 651 418 q 682 495 664 453 q 714 589 700 538 q 728 697 728 640 l 728 697 q 724 788 736 758 q 678 832 711 817 l 678 832 q 580 826 633 849 q 475 743 526 803 q 383 586 424 683 l 383 586 q 293 369 326 465 q 250 197 260 274 q 254 58 240 121 l 254 58 q 277 -6 257 15 q 332 -18 297 -28 z "},"R":{"ha":746,"x_min":110,"x_max":889,"o":"m 194 -83 l 194 -83 q 174 -99 189 -97 q 136 -82 160 -100 l 136 -82 q 115 -56 119 -65 q 119 -26 110 -47 q 153 50 129 -4 l 153 50 q 172 117 158 83 q 193 165 186 151 l 193 165 q 216 230 199 185 q 256 331 233 275 q 300 435 279 386 q 331 510 321 485 l 331 510 q 379 626 354 565 q 447 781 404 688 l 447 781 q 453 810 453 794 q 431 825 454 825 l 431 825 q 415 856 417 840 q 429 879 414 872 l 429 879 l 501 908 q 635 917 567 924 q 765 879 704 911 l 765 879 q 860 801 832 840 q 888 721 888 761 q 874 642 889 681 l 874 642 q 831 578 863 613 q 759 508 800 543 q 674 445 718 474 q 593 401 631 417 l 593 401 q 521 372 558 385 q 443 347 483 360 l 443 347 q 390 342 421 342 q 344 347 360 342 l 344 347 l 321 282 q 273 133 307 232 q 194 -83 239 35 z m 746 -99 l 746 -99 q 720 -101 735 -103 q 674 -79 706 -100 l 674 -79 q 551 8 613 -43 q 414 147 490 60 l 414 147 q 365 211 385 182 q 322 293 344 240 l 322 293 l 303 368 l 340 389 l 390 339 q 448 246 413 290 q 514 167 483 201 l 514 167 q 582 97 539 138 q 674 18 625 56 q 761 -39 722 -19 l 761 -39 q 767 -60 769 -46 q 758 -85 764 -74 q 746 -99 751 -97 z m 388 418 l 388 418 q 463 434 419 421 q 549 465 506 447 l 549 465 q 634 512 589 485 q 718 572 679 539 q 781 642 757 606 q 803 714 806 678 l 803 714 q 789 751 803 732 q 756 786 775 771 q 718 807 736 801 l 718 807 q 626 825 663 821 q 571 820 590 829 q 544 783 551 811 l 544 783 q 533 756 544 779 q 506 697 522 732 q 475 624 490 663 l 475 624 q 414 499 435 542 q 388 440 393 457 q 388 418 382 424 z "},"S":{"ha":675,"x_min":182,"x_max":924,"o":"m 353 -69 l 353 -69 q 313 -58 328 -62 q 297 -53 297 -53 l 297 -53 q 295 -40 300 -46 q 275 -33 290 -35 l 275 -33 q 237 -2 254 -21 q 208 35 219 17 q 192 65 197 53 l 192 65 q 183 91 182 86 q 199 103 183 96 l 199 103 q 222 110 214 114 q 240 82 229 106 l 240 82 q 302 33 258 50 q 401 19 346 17 q 506 43 456 21 l 506 43 q 570 87 557 64 q 560 146 583 110 l 560 146 q 550 164 556 157 q 533 182 544 171 q 494 218 521 193 l 494 218 q 456 236 474 228 q 419 254 439 244 l 419 254 q 366 287 397 265 q 307 335 335 308 q 267 383 279 361 l 267 383 q 233 441 244 404 q 225 519 222 478 q 246 594 228 561 l 246 594 q 274 642 254 614 q 319 700 294 671 q 368 753 344 729 q 407 786 392 776 l 407 786 q 431 809 418 797 q 443 821 443 821 l 443 821 q 448 828 444 828 q 451 828 451 828 l 451 828 q 482 842 458 832 q 533 878 506 851 l 533 878 q 685 943 626 922 q 781 964 743 964 l 781 964 l 781 964 l 781 964 q 844 948 815 963 q 891 910 872 933 q 914 853 910 886 l 914 853 q 908 776 924 819 q 863 694 893 732 q 799 636 833 656 l 799 636 q 747 622 760 619 q 735 650 733 624 l 735 650 q 742 676 735 661 q 785 731 750 692 l 785 731 q 839 835 829 796 q 821 878 849 874 l 821 878 q 791 878 813 881 q 744 870 769 875 q 700 860 718 865 q 682 853 682 856 l 682 853 q 682 849 682 853 q 676 846 682 844 l 676 846 q 653 835 674 846 q 603 806 632 824 q 544 769 574 788 q 495 738 515 751 q 474 722 475 725 l 474 722 q 442 694 471 707 l 442 694 q 391 646 414 678 q 340 567 368 614 l 340 567 q 307 498 317 535 q 307 439 297 461 l 307 439 q 350 382 314 417 q 440 315 386 347 l 440 315 q 525 263 488 289 q 587 214 563 238 q 619 172 611 190 l 619 172 q 644 124 636 149 q 652 78 651 100 q 647 38 653 56 l 647 38 q 613 -8 638 15 q 572 -31 589 -32 l 572 -31 q 549 -40 557 -35 q 532 -50 542 -46 l 532 -50 q 491 -61 522 -56 q 422 -69 460 -67 q 353 -69 385 -71 z "},"T":{"ha":636,"x_min":233,"x_max":896,"o":"m 299 -61 l 299 -61 q 274 -43 288 -61 q 261 -8 260 -25 l 261 -8 q 274 56 263 14 q 299 140 285 97 q 324 208 313 183 l 324 208 q 334 248 329 231 q 340 271 339 265 l 340 271 q 353 300 344 276 q 368 346 363 324 l 368 346 q 380 388 371 357 q 402 461 389 419 q 428 543 415 503 q 451 614 442 583 q 464 654 461 644 l 464 654 q 481 686 475 671 q 488 707 486 701 l 488 707 q 497 722 496 713 q 499 736 499 731 l 499 736 q 503 747 499 743 q 508 757 508 751 l 508 757 q 515 770 514 761 q 524 786 517 779 l 524 786 l 531 810 l 613 811 q 604 770 610 794 q 578 706 599 746 l 578 706 q 562 656 571 678 q 554 626 553 633 l 554 626 q 542 599 551 624 q 522 538 533 574 q 498 465 510 501 q 477 402 486 429 q 465 368 468 375 l 465 368 q 440 303 454 346 q 399 186 426 260 l 399 186 q 372 119 388 164 q 346 39 356 75 l 346 39 q 324 -37 331 -15 q 314 -60 318 -58 q 299 -61 310 -62 z m 310 767 l 310 767 q 252 771 271 765 q 239 799 233 776 l 239 799 q 257 824 243 815 q 297 836 271 832 l 297 836 q 337 843 313 839 q 383 851 361 847 l 383 851 q 459 861 429 857 q 521 868 489 865 q 601 874 553 871 l 601 874 q 670 878 642 876 q 699 881 699 881 l 699 881 q 728 878 703 881 q 782 871 753 875 q 825 861 811 867 l 825 861 q 872 842 857 854 q 892 806 886 829 l 892 806 q 892 785 896 789 q 876 776 888 782 l 876 776 q 829 767 844 767 q 794 774 814 767 l 794 774 q 778 786 788 781 q 748 795 769 792 q 681 801 726 799 l 681 801 q 613 797 642 797 q 583 790 583 797 l 583 790 l 501 786 l 433 779 q 394 776 419 778 q 346 772 369 774 q 310 767 322 769 z "},"U":{"ha":669,"x_min":169,"x_max":903,"o":"m 306 -72 l 306 -72 q 208 2 242 -49 q 172 145 174 53 q 200 382 169 238 l 200 382 q 228 493 210 431 q 270 622 246 556 q 322 749 294 688 q 375 858 349 811 l 375 858 q 424 930 407 915 q 456 942 442 944 l 456 942 q 494 916 482 935 q 502 876 506 897 q 475 839 499 854 l 475 839 q 435 773 460 821 q 386 681 411 725 l 386 681 q 338 538 358 600 q 303 422 317 476 q 278 308 289 368 l 278 308 q 259 213 265 250 q 251 151 253 175 q 249 108 249 126 q 249 71 249 90 l 249 71 q 267 39 260 53 q 285 22 274 25 l 285 22 q 338 17 308 11 q 397 39 368 22 l 397 39 q 415 58 404 53 q 426 64 426 64 l 426 64 q 433 60 429 57 q 438 69 436 64 l 438 69 q 440 80 436 75 q 450 90 444 85 l 450 90 q 483 119 461 94 q 527 174 504 143 q 566 229 550 204 q 582 260 582 254 l 582 260 q 588 272 582 267 q 600 286 593 278 l 600 286 q 628 331 607 293 q 676 421 650 369 q 722 515 701 472 l 722 515 q 738 565 726 531 q 762 643 749 599 q 788 733 775 688 q 810 813 800 778 q 824 865 821 849 l 824 865 q 832 895 826 883 q 839 913 838 907 l 839 913 q 856 911 846 915 q 876 901 865 907 q 894 892 886 896 l 894 892 q 901 864 903 881 q 892 813 900 847 q 871 715 885 779 l 871 715 q 801 506 842 601 q 713 303 760 410 l 713 303 q 713 302 713 303 q 713 294 713 301 l 713 294 q 686 265 696 285 l 686 265 q 674 244 679 253 q 663 231 669 235 l 663 231 q 654 208 658 218 q 650 199 650 199 l 650 199 q 640 186 649 192 q 624 175 632 181 l 624 175 q 615 164 617 172 q 610 150 614 156 l 610 150 q 540 60 579 104 q 460 -17 501 15 q 382 -64 419 -50 l 382 -64 q 341 -75 357 -74 q 306 -72 325 -76 z "},"V":{"ha":681,"x_min":264,"x_max":919,"o":"m 361 -81 l 361 -81 q 351 -72 354 -78 q 346 -50 349 -67 l 346 -50 q 338 -28 346 -35 q 306 -15 329 -21 l 306 -15 q 283 19 290 0 q 273 83 276 39 q 264 217 269 128 l 264 217 q 269 299 267 265 q 274 361 271 332 q 280 424 276 390 q 290 507 283 457 l 290 507 q 294 576 288 539 q 296 636 300 614 l 296 636 q 308 706 306 667 q 321 776 311 746 l 321 776 q 327 821 324 800 q 331 856 331 842 l 331 856 q 333 907 328 883 q 356 938 339 931 l 356 938 q 379 942 364 940 q 401 938 394 943 l 401 938 q 417 919 413 932 q 419 892 421 907 l 419 892 q 420 839 422 876 q 413 756 418 801 q 397 668 407 711 l 397 668 q 380 552 386 611 q 371 436 374 493 l 371 436 q 360 247 365 322 q 358 139 354 172 l 358 139 q 361 117 358 135 q 368 83 364 99 q 376 67 372 67 l 376 67 q 398 86 388 68 q 417 128 408 104 q 435 171 426 153 l 435 171 q 472 247 453 206 q 504 325 490 288 l 504 325 q 554 425 529 383 q 601 518 579 467 l 601 518 q 631 583 610 540 q 672 661 653 625 l 672 661 q 717 731 696 697 q 768 819 739 764 l 768 819 q 831 911 808 886 q 875 936 853 936 l 875 936 q 894 937 890 939 q 907 921 897 935 l 907 921 q 919 890 918 906 q 905 846 919 874 q 854 767 890 818 l 854 767 q 792 669 826 725 q 730 565 758 614 q 689 492 701 515 l 689 492 q 676 460 682 476 q 660 429 671 443 l 660 429 q 622 369 646 415 q 576 279 599 324 l 576 279 q 537 188 551 221 q 513 135 522 156 q 496 94 504 114 q 475 46 488 75 l 475 46 q 456 -3 468 22 q 443 -37 444 -29 l 443 -37 q 417 -65 433 -53 q 386 -81 401 -76 q 361 -81 371 -85 z "},"X":{"ha":728,"x_min":74,"x_max":924,"o":"m 879 893 l 879 893 q 915 870 907 892 q 913 811 924 849 q 868 726 901 774 l 868 726 q 832 672 836 694 l 832 672 q 802 637 822 660 q 759 588 782 614 q 719 543 736 563 q 696 519 701 524 l 696 519 q 652 481 676 503 q 609 440 628 458 q 585 414 590 421 l 585 414 q 567 394 575 404 q 551 381 558 383 l 551 381 q 543 367 550 375 q 533 353 536 360 l 533 353 q 515 338 531 351 q 481 306 500 324 q 448 275 463 289 q 432 258 433 261 l 432 258 q 385 210 417 244 q 314 135 353 176 q 239 53 275 93 q 178 -15 203 14 q 151 -50 154 -43 l 151 -50 q 134 -65 146 -61 q 111 -65 122 -68 l 111 -65 q 99 -67 106 -68 q 90 -65 93 -67 l 90 -65 q 88 -58 90 -65 q 82 -36 85 -51 l 82 -36 q 78 -10 74 -22 q 88 18 82 3 l 88 18 q 107 49 97 36 q 140 83 117 61 q 213 150 164 104 l 213 150 q 258 192 235 172 q 282 217 281 213 l 282 217 q 293 232 283 222 q 313 256 303 242 l 313 256 q 345 284 322 263 q 396 333 368 306 q 451 386 424 360 q 496 429 478 413 l 496 429 q 516 452 504 440 q 542 481 528 464 l 542 481 q 560 501 543 483 q 601 542 578 518 q 647 590 625 567 q 679 625 668 613 l 679 625 q 780 747 735 690 q 843 842 825 803 l 843 842 q 863 881 857 871 q 879 893 868 892 z m 683 -37 l 683 -37 q 631 -10 657 -35 q 572 71 604 14 l 572 71 q 482 242 521 142 q 428 460 443 343 l 428 460 q 413 544 421 508 q 401 582 404 579 l 401 582 q 403 590 400 588 q 407 592 407 592 l 407 592 q 408 601 411 596 q 403 613 406 606 l 403 613 q 396 644 403 613 q 385 724 389 676 l 385 724 q 376 810 379 774 q 369 858 372 847 l 369 858 q 365 867 365 861 q 365 872 365 872 l 365 872 q 374 887 368 881 q 383 897 379 893 l 383 897 q 424 903 404 913 q 458 869 444 894 q 471 808 471 843 l 471 808 q 479 764 471 772 l 479 764 q 478 743 478 761 q 481 702 479 725 q 486 660 483 679 q 490 633 489 640 l 490 633 q 490 610 485 617 l 490 610 q 494 580 492 599 q 496 554 497 561 l 496 554 q 499 530 494 547 q 508 494 504 513 l 508 494 l 544 369 q 565 291 556 325 q 589 224 575 257 q 622 151 603 192 l 622 151 q 658 90 638 118 q 696 51 679 61 l 696 51 q 710 48 699 49 q 725 51 722 47 l 725 51 q 748 47 740 56 q 759 24 756 38 q 763 -3 763 11 l 763 -3 q 753 -22 765 -12 q 723 -35 742 -31 q 683 -37 704 -40 z "},"e":{"ha":451,"x_min":144,"x_max":535,"o":"m 383 49 l 383 49 q 316 19 354 24 q 242 31 278 15 q 182 81 206 47 l 182 81 q 151 151 158 111 q 150 254 144 190 l 150 254 q 185 363 154 308 q 259 461 215 418 q 346 521 303 504 l 346 521 q 381 534 367 535 q 426 531 396 533 l 426 531 q 474 518 458 526 q 500 496 490 510 l 500 496 q 528 455 521 475 q 535 415 535 435 l 535 415 q 494 341 529 385 q 401 269 458 297 l 401 269 q 335 261 371 260 q 275 279 299 263 l 275 279 q 240 276 249 290 q 225 206 232 261 l 225 206 q 233 128 219 153 q 271 100 247 104 l 271 100 q 315 92 299 94 q 354 104 331 90 l 354 104 q 382 120 376 118 q 391 126 388 122 q 408 143 394 129 l 408 143 q 424 158 418 153 q 436 163 429 163 l 436 163 q 449 156 443 163 q 460 147 454 150 l 460 147 q 466 131 474 147 q 436 91 458 114 q 383 49 414 68 z m 382 343 l 382 343 q 414 363 397 350 q 442 392 431 376 q 454 419 454 408 l 454 419 q 436 452 454 439 q 382 456 418 465 l 382 456 q 347 435 367 451 q 310 400 328 419 q 283 365 293 381 q 275 347 272 350 l 275 347 q 299 337 279 340 q 342 335 318 333 q 382 343 367 336 z "},"n":{"ha":625,"x_min":144,"x_max":658,"o":"m 631 64 l 631 64 q 585 76 603 64 q 554 115 567 88 l 554 115 q 545 159 549 135 q 542 205 542 183 q 546 233 542 226 l 546 233 q 551 253 551 239 q 550 285 550 268 l 550 285 q 537 316 549 313 q 503 307 525 319 l 503 307 q 438 266 478 292 q 353 210 397 240 q 271 146 310 179 l 271 146 q 234 95 240 113 q 217 78 228 78 l 217 78 q 198 77 206 72 q 176 93 190 82 l 176 93 q 157 115 167 104 q 144 131 147 125 l 144 131 q 149 160 144 138 q 159 204 153 182 q 168 233 165 226 l 168 233 q 180 247 175 233 q 196 278 185 261 l 196 278 q 210 323 199 294 q 232 374 222 351 l 232 374 q 259 429 251 407 q 269 485 267 451 l 269 485 q 272 495 268 490 q 282 500 276 500 l 282 500 l 282 500 l 282 500 q 308 506 293 511 q 336 485 324 501 l 336 485 q 356 416 361 451 q 311 315 351 381 l 311 315 q 297 281 301 293 q 292 263 292 269 l 292 263 q 306 272 292 263 q 340 295 321 282 q 369 315 358 308 l 369 315 q 401 340 376 322 q 455 376 426 358 q 497 396 483 393 l 497 396 q 521 406 508 401 q 539 411 533 411 l 539 411 q 567 399 550 411 q 600 372 585 388 q 618 344 615 356 l 618 344 q 619 333 618 339 q 621 322 619 328 l 621 322 q 627 274 626 304 q 625 218 628 243 q 615 189 622 193 l 615 189 q 616 185 615 189 q 622 182 617 182 l 622 182 q 622 176 622 176 q 622 175 622 175 l 622 175 q 617 163 615 175 q 626 138 618 151 q 642 115 633 124 l 642 115 q 656 84 658 99 q 631 64 653 69 z "},"o":{"ha":490,"x_min":132,"x_max":553,"o":"m 235 21 l 235 21 q 206 28 217 21 q 181 47 196 35 l 181 47 q 143 101 154 75 q 136 150 132 126 l 136 150 q 140 172 140 161 q 139 182 139 182 l 139 182 q 135 191 132 189 q 140 199 138 193 l 140 199 q 146 214 149 199 l 146 214 q 157 263 143 225 q 192 333 171 300 l 192 333 q 217 370 200 347 q 253 416 233 393 q 290 453 274 439 l 290 453 q 351 496 325 482 q 408 517 378 510 l 408 517 q 451 524 439 524 q 483 501 463 524 l 483 501 q 530 468 515 488 q 549 411 544 449 l 549 411 q 542 316 553 369 q 476 183 532 263 l 476 183 q 413 109 442 133 q 343 61 383 85 l 343 61 q 290 33 314 42 q 235 21 267 24 z m 368 168 l 368 168 q 422 239 401 206 q 460 324 442 272 l 460 324 q 467 362 465 339 q 466 405 468 385 q 456 428 464 425 l 456 428 q 415 434 439 438 q 364 407 392 431 l 364 407 q 289 317 321 371 q 226 196 257 264 l 226 196 q 217 116 206 146 q 269 95 229 86 q 368 168 308 104 z "},"p":{"ha":525,"x_min":49,"x_max":576,"o":"m 85 -311 l 85 -311 q 71 -312 79 -311 q 56 -300 63 -312 l 56 -300 q 49 -279 50 -293 q 56 -229 49 -265 l 56 -229 q 67 -183 63 -206 q 71 -149 71 -160 l 71 -149 q 74 -127 71 -143 q 78 -104 78 -111 l 78 -104 q 89 -74 85 -93 q 93 -39 93 -54 l 93 -39 q 110 -8 93 -22 l 110 -8 q 115 19 110 3 q 119 42 119 36 l 119 42 q 138 110 124 61 q 174 222 153 160 q 217 344 196 285 q 254 446 238 404 l 254 446 q 277 513 271 485 q 283 556 283 542 l 283 556 q 286 565 283 561 q 299 579 289 568 l 299 579 q 323 588 313 593 q 349 571 333 582 l 349 571 q 365 540 360 553 q 364 497 369 528 l 364 497 q 357 461 364 476 q 344 438 350 446 q 342 432 339 431 l 342 432 q 442 460 399 458 q 516 445 486 463 q 561 397 546 428 q 576 326 576 367 l 576 326 q 569 287 576 310 q 552 245 563 264 q 533 218 542 226 l 533 218 q 522 209 528 218 q 511 189 517 200 l 511 189 q 476 158 500 175 q 428 130 451 140 q 393 124 404 119 l 393 124 q 390 123 393 124 q 386 115 386 122 l 386 115 q 364 103 386 113 q 313 87 342 94 q 261 79 283 79 l 261 79 q 219 90 232 79 l 219 90 q 213 82 217 88 q 210 72 210 76 l 210 72 q 203 41 210 64 q 189 -3 197 18 q 174 -24 181 -24 l 174 -24 q 171 -28 174 -24 q 174 -39 168 -32 l 174 -39 q 173 -55 174 -39 q 165 -82 172 -71 l 165 -82 q 161 -115 165 -93 q 151 -149 157 -137 l 151 -149 q 147 -181 151 -165 q 136 -197 142 -197 l 136 -197 q 129 -215 131 -199 q 128 -237 128 -231 l 128 -237 q 114 -292 126 -272 q 85 -311 101 -311 z m 253 153 l 253 153 q 299 163 264 153 q 370 187 333 172 q 425 217 407 201 l 425 217 q 481 290 461 249 q 478 368 501 331 l 478 368 q 438 384 467 388 q 374 361 408 381 q 308 313 339 342 l 308 313 q 278 268 292 294 q 255 215 264 242 q 244 171 246 189 q 253 153 243 153 z "},"r":{"ha":500,"x_min":143,"x_max":625,"o":"m 165 49 l 165 49 q 148 68 153 58 q 147 106 143 78 l 147 106 q 158 174 151 144 q 175 243 165 204 l 175 243 q 191 300 178 260 q 224 388 204 340 q 263 477 243 435 q 296 540 282 519 l 296 540 q 323 547 307 549 q 350 535 339 546 l 350 535 q 355 491 365 522 q 313 393 344 460 l 313 393 q 288 337 296 356 q 281 315 279 318 q 293 318 282 311 l 293 318 q 324 353 301 333 q 371 393 346 374 q 418 428 396 413 q 449 447 440 443 l 449 447 q 474 459 460 454 q 494 467 489 464 l 494 467 q 560 478 526 482 q 601 453 593 474 l 601 453 q 610 436 603 442 q 618 431 618 431 l 618 431 q 624 426 624 431 q 625 422 625 422 l 625 422 q 610 410 625 413 q 574 407 596 408 l 574 407 q 542 400 556 406 q 508 386 528 394 l 508 386 q 408 326 456 356 q 315 249 360 297 l 315 249 q 296 222 306 238 q 275 189 286 207 l 275 189 q 261 158 268 182 q 249 113 254 135 q 244 88 244 92 l 244 88 q 240 74 244 88 q 226 49 236 61 l 226 49 q 199 26 210 26 q 165 49 188 26 z "},"/":{"ha":458,"x_min":40,"x_max":696,"o":"m 93 -131 l 93 -131 q 46 -86 51 -132 q 74 32 40 -40 l 74 32 q 90 62 82 47 q 100 86 99 76 l 100 86 q 123 130 104 94 q 169 215 142 165 q 226 319 196 265 q 282 422 256 374 q 326 501 308 469 q 347 536 344 533 l 347 536 q 359 544 353 535 q 367 563 365 553 l 367 563 q 377 586 369 574 q 390 601 385 599 l 390 601 q 398 617 393 608 q 404 631 403 625 l 404 631 q 410 641 406 636 q 415 651 414 646 l 415 651 q 444 691 426 664 q 485 753 463 718 q 531 824 508 788 q 574 892 554 860 q 606 946 593 924 q 619 974 618 968 l 619 974 q 647 990 624 994 l 647 990 q 669 993 654 996 l 669 993 q 673 987 669 993 q 686 967 676 981 l 686 967 q 695 942 696 954 q 690 914 694 929 l 690 914 q 681 883 688 896 q 656 847 674 869 q 600 775 638 824 l 600 775 q 583 751 592 763 q 566 730 574 739 q 554 715 558 721 q 550 706 550 708 l 550 706 q 541 690 549 700 q 525 664 533 679 l 525 664 q 503 635 517 654 q 474 594 489 615 q 449 558 460 574 q 438 539 438 542 l 438 539 q 434 529 436 535 q 425 519 432 524 l 425 519 q 417 513 419 521 q 415 506 415 506 l 415 506 q 379 438 415 494 l 379 438 q 334 354 364 410 q 269 231 304 299 q 200 99 233 164 q 144 -12 167 35 q 118 -75 121 -60 l 118 -75 q 108 -117 113 -107 q 93 -131 104 -128 z "},"-":{"ha":453,"x_min":143,"x_max":500,"o":"m 247 247 l 247 247 q 226 248 239 247 q 199 254 214 249 l 199 254 q 171 259 178 254 q 158 274 164 264 l 158 274 q 156 302 143 294 q 219 315 168 310 l 219 315 q 307 331 267 326 q 403 335 347 335 l 403 335 q 451 332 439 335 q 479 314 464 329 l 479 314 q 494 274 500 293 q 457 261 489 256 l 457 261 q 421 258 447 260 q 369 254 394 257 l 369 254 q 321 250 354 253 q 247 247 288 247 z "}," ":{"ha":336,"x_min":null,"x_max":null,"o":""}}}
